<?xml version="1.0" standalone="no"?>
<!DOCTYPE svg PUBLIC "-//W3C//DTD SVG 20010904//EN"
 "http://www.w3.org/TR/2001/REC-SVG-20010904/DTD/svg10.dtd">
<svg version="1.0" xmlns="http://www.w3.org/2000/svg"
 width="512.000000pt" height="512.000000pt" viewBox="0 0 512.000000 512.000000"
 preserveAspectRatio="xMidYMid meet">
<metadata>
Created by potrace 1.16, written by Peter Selinger 2001-2019
</metadata>
<g transform="translate(0.000000,512.000000) scale(0.100000,-0.100000)"
fill="#000000" stroke="none">
<path d="M2225 3748 c-3 -7 -6 -83 -7 -168 l-3 -155 -45 -22 c-50 -25 -280
-135 -442 -211 -58 -27 -107 -56 -110 -63 -9 -23 10 -59 30 -59 10 0 45 13 78
29 32 16 62 27 67 24 4 -2 7 -101 7 -219 l0 -215 38 3 37 3 5 238 5 238 70 36
c39 19 78 39 88 45 10 5 76 36 145 68 70 32 198 92 284 134 l157 75 63 -28
c35 -15 104 -47 153 -71 50 -23 122 -57 160 -75 39 -18 129 -61 200 -95 72
-34 140 -66 153 -71 l22 -9 -2 -462 -3 -463 -313 -3 -312 -2 6 -28 c4 -15 9
-30 11 -34 2 -5 157 -8 343 -8 260 0 341 3 347 13 4 6 6 217 4 468 -2 306 0
459 7 463 6 3 40 -8 76 -25 55 -26 69 -29 81 -19 44 37 -4 69 -300 206 -88 41
-201 94 -499 238 l-198 96 -97 -46 c-163 -78 -219 -104 -225 -104 -3 0 -6 54
-6 119 0 140 -8 171 -45 171 -14 0 -28 -6 -30 -12z"/>
<path d="M1871 1776 c-8 -9 -11 -50 -9 -117 3 -103 3 -104 28 -104 23 0 25 4
30 60 l5 60 20 -53 c33 -91 61 -95 90 -13 10 27 22 48 27 45 4 -3 8 -27 8 -55
0 -46 2 -49 25 -49 l25 0 0 114 c0 70 -4 117 -11 121 -5 4 -21 4 -33 1 -18 -4
-30 -22 -49 -68 -13 -34 -28 -63 -33 -65 -9 -3 -44 72 -44 93 0 16 -34 44 -52
44 -9 0 -21 -6 -27 -14z"/>
<path d="M2212 1778 c-11 -14 -73 -184 -75 -208 -1 -9 8 -16 25 -18 22 -3 29
2 34 22 5 22 12 26 45 26 33 0 41 -4 49 -25 9 -23 46 -35 62 -20 6 6 -61 205
-74 223 -6 6 -21 12 -33 12 -12 0 -27 -6 -33 -12z"/>
<path d="M2364 1765 c4 -14 21 -49 39 -78 29 -47 34 -63 36 -119 1 -12 9 -18
26 -18 23 0 25 4 25 41 0 28 11 60 35 103 40 72 44 96 15 96 -13 0 -30 -16
-48 -46 -31 -49 -35 -48 -66 14 -12 24 -23 32 -42 32 -23 0 -25 -3 -20 -25z"/>
<path d="M2647 1784 c-4 -4 -7 -58 -7 -121 l0 -113 24 0 c22 0 25 5 28 43 3
42 3 42 45 45 l42 3 3 -43 c3 -39 6 -43 31 -46 26 -3 27 -2 28 50 0 45 2 49
10 28 6 -14 22 -37 36 -52 36 -38 108 -40 150 -4 25 22 28 30 28 89 0 55 -4
69 -24 91 -30 32 -81 43 -122 25 -33 -13 -68 -60 -71 -94 -1 -11 -4 7 -7 40
-5 48 -10 61 -25 63 -24 5 -36 -14 -36 -60 0 -37 -1 -38 -39 -38 -38 0 -39 0
-47 47 -9 45 -29 65 -47 47z"/>
<path d="M3097 1784 c-4 -4 -7 -58 -7 -121 l0 -113 25 0 c24 0 25 3 25 60 0
33 3 60 8 60 4 0 16 -26 28 -57 29 -83 53 -84 85 -3 l24 62 5 -59 c5 -54 7
-58 30 -58 25 0 25 1 28 95 4 123 -1 140 -36 140 -25 0 -31 -7 -51 -52 -47
-109 -41 -107 -76 -26 -25 60 -35 74 -56 76 -14 2 -28 0 -32 -4z"/>
<path d="M3371 1776 c-8 -9 -11 -48 -9 -117 l3 -104 83 -3 c75 -3 82 -1 82 17
0 22 -18 31 -66 31 -22 0 -37 6 -41 15 -8 22 0 27 49 29 36 1 43 4 46 24 3 20
0 22 -47 22 -48 0 -51 2 -51 25 0 24 3 25 56 25 52 0 55 1 52 23 -3 20 -9 22
-74 25 -52 2 -74 -1 -83 -12z"/>
</g>
</svg>
